<svg width="70" height="70" viewBox="0 0 70 70" fill="none" xmlns="http://www.w3.org/2000/svg">
<rect width="70" height="70" rx="35" fill="#E7E7E7"/>
<g clip-path="url(#clip0_388_154)">
<path d="M18.7435 22.4433C18.6624 20.1317 20.4775 18 22.9311 18H48.072C50.5256 18 52.3407 20.1317 52.2596 22.4433C52.1816 24.6639 52.2828 27.5404 53.0124 29.8858C53.7443 32.2385 54.9786 33.7256 57 33.9167V36.0833C54.9786 36.2744 53.7443 37.7615 53.0124 40.1142C52.2828 42.4596 52.1816 45.3361 52.2596 47.5568C52.3407 49.8683 50.5256 52 48.072 52H22.9311C20.4775 52 18.6624 49.8683 18.7436 47.5568C18.8215 45.3361 18.7203 42.4596 17.9906 40.1142C17.2588 37.7615 16.0215 36.2744 14 36.0833V33.9167C16.0214 33.7256 17.2588 32.2385 17.9906 29.8858C18.7203 27.5404 18.8215 24.6639 18.7435 22.4433Z" fill="url(#paint0_linear_388_154)"/>
<g filter="url(#filter0_d_388_154)">
<path d="M36.4325 44.0382C40.4047 44.0382 42.7983 42.1083 42.7983 38.9253C42.7983 36.5192 41.0904 34.7773 38.5544 34.5015V34.4013C40.4176 34.1005 41.8797 32.3837 41.8797 30.4663C41.8797 27.7344 39.706 25.9548 36.3937 25.9548H28.9409V44.0382H36.4325ZM31.8392 28.2482H35.695C37.7911 28.2482 38.9814 29.1755 38.9814 30.8548C38.9814 32.6468 37.597 33.6493 35.0869 33.6493H31.8392V28.2482ZM31.8392 41.7449V35.7923H35.6691C38.4121 35.7923 39.8354 36.7948 39.8354 38.7498C39.8354 40.7048 38.451 41.7449 35.8373 41.7449H31.8392Z" fill="url(#paint1_linear_388_154)"/>
<path d="M36.4325 44.0382C40.4047 44.0382 42.7983 42.1083 42.7983 38.9253C42.7983 36.5192 41.0904 34.7773 38.5544 34.5015V34.4013C40.4176 34.1005 41.8797 32.3837 41.8797 30.4663C41.8797 27.7344 39.706 25.9548 36.3937 25.9548H28.9409V44.0382H36.4325ZM31.8392 28.2482H35.695C37.7911 28.2482 38.9814 29.1755 38.9814 30.8548C38.9814 32.6468 37.597 33.6493 35.0869 33.6493H31.8392V28.2482ZM31.8392 41.7449V35.7923H35.6691C38.4121 35.7923 39.8354 36.7948 39.8354 38.7498C39.8354 40.7048 38.451 41.7449 35.8373 41.7449H31.8392Z" stroke="white"/>
</g>
</g>
<defs>
<filter id="filter0_d_388_154" x="12.4409" y="13.4548" width="46.8574" height="51.0833" filterUnits="userSpaceOnUse" color-interpolation-filters="sRGB">
<feFlood flood-opacity="0" result="BackgroundImageFix"/>
<feColorMatrix in="SourceAlpha" type="matrix" values="0 0 0 0 0 0 0 0 0 0 0 0 0 0 0 0 0 0 127 0" result="hardAlpha"/>
<feOffset dy="4"/>
<feGaussianBlur stdDeviation="8"/>
<feColorMatrix type="matrix" values="0 0 0 0 0 0 0 0 0 0 0 0 0 0 0 0 0 0 0.15 0"/>
<feBlend mode="normal" in2="BackgroundImageFix" result="effect1_dropShadow_388_154"/>
<feBlend mode="normal" in="SourceGraphic" in2="effect1_dropShadow_388_154" result="shape"/>
</filter>
<linearGradient id="paint0_linear_388_154" x1="20.3894" y1="18.8998" x2="57.7377" y2="48.7785" gradientUnits="userSpaceOnUse">
<stop stop-color="#9013FE"/>
<stop offset="1" stop-color="#6610F2"/>
</linearGradient>
<linearGradient id="paint1_linear_388_154" x1="30.2517" y1="27.1451" x2="38.5541" y2="41.296" gradientUnits="userSpaceOnUse">
<stop stop-color="white"/>
<stop offset="1" stop-color="#F1E5FC"/>
</linearGradient>
<clipPath id="clip0_388_154">
<rect width="43" height="34" fill="white" transform="translate(14 18)"/>
</clipPath>
</defs>
</svg>
