<svg width="71" height="70" viewBox="0 0 71 70" fill="none" xmlns="http://www.w3.org/2000/svg">
<rect x="0.5" width="70" height="70" rx="35" fill="#E7E7E7"/>
<path d="M54.9685 13L51.5143 51.6955L35.9876 56L20.5037 51.7016L17.0532 13H54.9685Z" fill="#264DE4"/>
<path d="M36.0107 52.7097L48.557 49.2314L51.5089 16.1643H36.0107V52.7097Z" fill="#2965F1"/>
<path d="M36.0108 30.5183H24.9634L25.3888 35.2648H36.0108V30.5183Z" fill="#EBEBEB"/>
<path d="M36.0108 20.9111H35.9944H24.1086L24.5401 25.6578H36.0108V20.9111Z" fill="#EBEBEB"/>
<path d="M25.6011 37.6382L26.2661 45.091L35.9891 47.7902L36.011 47.7841V42.8457L35.9902 42.8512L30.7038 41.4238L30.3659 37.6382H27.7972H25.6011Z" fill="#EBEBEB"/>
<path d="M41.8393 35.2649L41.2883 41.4209L35.9944 42.8497V47.788L45.7252 45.0911L45.7965 44.2892L46.9119 31.7929L47.0278 30.5184L47.8847 20.9111H35.9944V25.6578H42.6828L42.2509 30.5184H35.9944V35.2649H41.8393Z" fill="white"/>
</svg>
