<svg width="71" height="70" viewBox="0 0 71 70" fill="none" xmlns="http://www.w3.org/2000/svg">
<rect x="0.5" width="70" height="70" rx="35" fill="#E7E7E7"/>
<path d="M28.839 56.0001C30.7397 56.0001 32.5626 55.245 33.9066 53.901C35.2506 52.557 36.0057 50.7341 36.0057 48.8334V41.6667H28.839C26.9383 41.6667 25.1154 42.4218 23.7714 43.7658C22.4274 45.1098 21.6724 46.9327 21.6724 48.8334C21.6724 50.7341 22.4274 52.557 23.7714 53.901C25.1154 55.245 26.9383 56.0001 28.839 56.0001Z" fill="#0ACF83"/>
<path d="M21.6724 34.4999C21.6724 32.5992 22.4274 30.7763 23.7714 29.4323C25.1154 28.0883 26.9383 27.3333 28.839 27.3333H36.0057V41.6666H28.839C26.9383 41.6666 25.1154 40.9115 23.7714 39.5675C22.4274 38.2235 21.6724 36.4006 21.6724 34.4999Z" fill="#A259FF"/>
<path d="M21.6724 20.1667C21.6724 18.2669 22.4267 16.4449 23.7695 15.101C25.1123 13.7572 26.9337 13.0015 28.8334 13H36.0001V27.3333H28.839C26.9383 27.3333 25.1154 26.5783 23.7714 25.2343C22.4274 23.8903 21.6724 22.0674 21.6724 20.1667Z" fill="#F24E1E"/>
<path d="M36.0056 13H43.1723C45.073 13 46.8959 13.7551 48.2399 15.0991C49.5839 16.4431 50.3389 18.2659 50.3389 20.1667C50.3389 22.0674 49.5839 23.8903 48.2399 25.2343C46.8959 26.5783 45.073 27.3333 43.1723 27.3333H36.0056V13Z" fill="#FF7262"/>
<path d="M50.3389 34.4999C50.3389 36.4006 49.5839 38.2235 48.2399 39.5675C46.8959 40.9115 45.073 41.6666 43.1723 41.6666C41.2716 41.6666 39.4487 40.9115 38.1047 39.5675C36.7607 38.2235 36.0056 36.4006 36.0056 34.4999C36.0056 32.5992 36.7607 30.7763 38.1047 29.4323C39.4487 28.0883 41.2716 27.3333 43.1723 27.3333C45.073 27.3333 46.8959 28.0883 48.2399 29.4323C49.5839 30.7763 50.3389 32.5992 50.3389 34.4999Z" fill="#1ABCFE"/>
</svg>
