<svg width="71" height="70" viewBox="0 0 71 70" fill="none" xmlns="http://www.w3.org/2000/svg">
<rect x="0.5" width="70" height="70" rx="35" fill="#E7E7E7"/>
<g clip-path="url(#clip0_388_75)">
<path d="M56.6883 32.5853L37.9148 13.8117C37.6577 13.5545 37.3525 13.3505 37.0166 13.2113C36.6806 13.0721 36.3206 13.0005 35.9569 13.0005C35.5933 13.0005 35.2332 13.0721 34.8973 13.2113C34.5614 13.3505 34.2561 13.5545 33.9991 13.8117L30.1022 17.7086L35.0472 22.6536C36.1975 22.2505 37.5143 22.526 38.4308 23.4424C38.867 23.8794 39.1716 24.4303 39.3096 25.0322C39.4477 25.6341 39.4137 26.2626 39.2115 26.8461L43.9778 31.6124C45.1307 31.2146 46.461 31.4713 47.3815 32.3945C47.6875 32.7005 47.9302 33.0639 48.0958 33.4638C48.2613 33.8636 48.3465 34.2922 48.3464 34.725C48.3464 35.1578 48.2611 35.5863 48.0954 35.9862C47.9297 36.386 47.6869 36.7493 47.3808 37.0553C47.0747 37.3612 46.7114 37.6039 46.3115 37.7695C45.9116 37.9351 45.4831 38.0203 45.0503 38.0202C44.6175 38.0201 44.1889 37.9348 43.7891 37.7691C43.3893 37.6035 43.026 37.3607 42.72 37.0546C41.7525 36.0871 41.5133 34.6627 42.0025 33.4708L37.5573 29.0257V40.723C37.88 40.8827 38.1749 41.0932 38.4308 41.3465C38.7368 41.6525 38.9795 42.0158 39.1451 42.4156C39.3107 42.8154 39.3959 43.2438 39.3959 43.6766C39.3959 44.1093 39.3107 44.5378 39.1451 44.9376C38.9795 45.3374 38.7368 45.7007 38.4308 46.0066C38.1248 46.3126 37.7615 46.5554 37.3617 46.721C36.9619 46.8866 36.5334 46.9718 36.1007 46.9718C35.668 46.9718 35.2395 46.8866 34.8397 46.721C34.4399 46.5554 34.0766 46.3126 33.7706 46.0066C33.4643 45.7009 33.2213 45.3377 33.0554 44.9378C32.8896 44.538 32.8043 44.1094 32.8043 43.6766C32.8043 43.2437 32.8896 42.8151 33.0554 42.4153C33.2213 42.0155 33.4643 41.6523 33.7706 41.3465C34.0891 41.0294 34.4425 40.7889 34.8497 40.6276V28.8214C34.4573 28.6602 34.0891 28.4223 33.7706 28.1025C33.308 27.6404 32.9934 27.0509 32.867 26.4093C32.7407 25.7677 32.8082 25.103 33.0611 24.4999L28.1833 19.6248L15.3102 32.4845C15.0528 32.7416 14.8486 33.0469 14.7093 33.3829C14.57 33.719 14.4983 34.0792 14.4983 34.443C14.4983 34.8068 14.57 35.167 14.7093 35.5031C14.8486 35.8391 15.0528 36.1444 15.3102 36.4015L34.0851 55.1737C34.3421 55.4309 34.6474 55.6349 34.9833 55.7741C35.3192 55.9133 35.6793 55.985 36.0429 55.985C36.4066 55.985 36.7666 55.9133 37.1026 55.7741C37.4385 55.6349 37.7437 55.4309 38.0008 55.1737L56.6883 36.5157C56.9457 36.2586 57.1499 35.9534 57.2892 35.6173C57.4285 35.2812 57.5002 34.921 57.5002 34.5572C57.5002 34.1934 57.4285 33.8332 57.2892 33.4972C57.1499 33.1611 56.9457 32.8558 56.6883 32.5987" fill="#F03C2E"/>
</g>
<defs>
<clipPath id="clip0_388_75">
<rect width="43" height="43" fill="white" transform="translate(14.5 13)"/>
</clipPath>
</defs>
</svg>
