<svg width="71" height="70" viewBox="0 0 71 70" fill="none" xmlns="http://www.w3.org/2000/svg">
<rect x="0.5" width="70" height="70" rx="35" fill="#E7E7E7"/>
<g clip-path="url(#clip0_388_85)">
<path d="M48.2375 49.1008C48.2375 51.4271 42.8339 53.3127 36.1682 53.3127C29.5025 53.3127 24.0989 51.4271 24.0989 49.1008C24.0989 46.7745 29.5023 44.8881 36.1682 44.8881C42.8341 44.8881 48.2375 46.7769 48.2375 49.1008Z" fill="#A0DCF2"/>
<path d="M48.2375 49.1008C48.2375 51.4271 42.8339 53.3127 36.1682 53.3127C29.5025 53.3127 24.0989 51.4271 24.0989 49.1008C24.0989 46.7745 29.5023 44.8881 36.1682 44.8881C42.8341 44.8881 48.2375 46.7769 48.2375 49.1008Z" fill="#82BDE7"/>
<path d="M22.3817 36.7152L22.0333 37.9257C22.0333 37.9257 21.9427 38.3632 22.356 38.4407C22.7876 38.4323 22.7524 38.0294 22.7221 37.8989L22.3817 36.7154V36.7152Z" fill="#A0DCF2"/>
<path d="M57.468 31.6402L57.4999 31.4828C53.9592 30.7768 50.3259 30.7696 48.1254 30.8607C48.4865 29.5635 48.5954 28.0706 48.5954 26.4059C48.5954 24.0184 47.6958 22.1084 46.2354 20.655C46.4908 19.8337 46.8317 18.0093 45.895 15.6741C45.895 15.6741 44.2407 15.151 40.5062 17.6449C39.0423 17.28 37.4843 17.0998 35.924 17.0998C34.2074 17.0998 32.4727 17.3178 30.8549 17.7604C26.9981 15.1364 25.2959 15.6739 25.2959 15.6739C24.1844 18.4473 24.8715 20.4962 25.0801 21.0059C23.7739 22.4117 22.9765 24.2058 22.9765 26.4056C22.9765 28.0666 23.1664 29.5563 23.6296 30.8512C21.4125 30.7708 17.9114 30.8017 14.4949 31.4824L14.5265 31.6397C17.961 30.9547 21.4838 30.9308 23.6852 31.014C23.7871 31.2818 23.901 31.54 24.028 31.7934C21.8491 31.8635 18.1291 32.1401 14.5637 33.1433L14.6073 33.2975C18.2008 32.2869 21.9534 32.0169 24.1112 31.9514C25.4131 34.371 27.9797 35.9341 32.5459 36.4223C31.8976 36.8565 31.2368 37.5948 30.9683 38.8442C30.0852 39.265 27.2897 40.2936 25.6121 37.4169C25.6121 37.4169 24.6732 35.7051 22.876 35.5712C22.876 35.5712 21.133 35.5473 22.7554 36.6542C22.7554 36.6542 23.9223 37.2024 24.7269 39.2602C24.7269 39.2602 25.7771 42.7736 30.8436 41.6463V45.2756C30.8436 45.2756 30.7364 46.5595 29.5561 46.987C29.5561 46.987 28.8589 47.4685 29.6098 47.7353C29.6098 47.7353 32.8813 48.0031 32.8813 45.3289V41.3716C32.8813 41.3716 32.7518 39.802 33.5245 39.2567V45.7614C33.5245 45.7614 33.4713 47.3124 32.6667 47.9007C32.6667 47.9007 32.1304 48.8631 33.3102 48.596C33.3102 48.596 35.5625 48.2751 35.6699 45.6545L35.7212 39.0766H36.2623L36.3139 45.6545C36.421 48.2749 38.6735 48.596 38.6735 48.596C39.8531 48.8631 39.3168 47.9007 39.3168 47.9007C38.5124 47.3126 38.459 45.7614 38.459 45.7614V39.3174C39.2317 39.9151 39.1025 41.3764 39.1025 41.3764V45.3337C39.1025 48.0076 42.3737 47.7401 42.3737 47.7401C43.1241 47.473 42.4276 46.9917 42.4276 46.9917C41.2476 46.5614 41.1401 45.2804 41.1401 45.2804V40.093C41.1401 38.0703 40.2859 36.9987 39.4506 36.4333C44.3176 35.9518 46.6567 34.3839 47.7337 31.9476C49.8665 32.006 53.705 32.2651 57.3766 33.2984L57.4203 33.1442C53.7695 32.1174 49.9567 31.8517 47.802 31.7891C47.9041 31.5428 47.9931 31.287 48.0722 31.024C50.2552 30.9284 53.905 30.932 57.4596 31.6409" fill="#292929"/>
<path d="M43.8346 26.2911C44.8836 27.2385 45.4971 28.383 45.4971 29.6155C45.4971 35.3715 41.194 35.5276 35.8865 35.5276C30.579 35.5276 26.2754 34.7331 26.2754 29.6179C26.2754 28.3933 26.8805 27.2562 27.9165 26.3126C29.6442 24.7399 32.5687 25.5726 35.886 25.5726C39.1903 25.5726 42.1038 24.7315 43.8339 26.2934" fill="#F5CDB5"/>
<path d="M32.6905 29.9113C32.6905 31.4964 31.7953 32.7817 30.691 32.7817C29.5866 32.7817 28.6909 31.4967 28.6909 29.9113C28.6909 28.3259 29.5866 27.0413 30.691 27.0413C31.7953 27.0413 32.6905 28.3259 32.6905 29.9113Z" fill="white"/>
<path d="M32.0487 29.9474C32.0487 31.0042 31.4493 31.8606 30.7156 31.8606C29.982 31.8606 29.3826 31.0042 29.3826 29.9474C29.3826 28.8907 29.9791 28.0333 30.7156 28.0333C31.4521 28.0333 32.0487 28.8902 32.0487 29.9474Z" fill="#B1645A"/>
<path d="M43.4186 29.9113C43.4186 31.4964 42.5233 32.7817 41.4185 32.7817C40.3137 32.7817 39.4189 31.4967 39.4189 29.9113C39.4189 28.3259 40.3144 27.0413 41.4185 27.0413C42.5226 27.0413 43.4186 28.3259 43.4186 29.9113Z" fill="white"/>
<path d="M42.7767 29.9474C42.7767 31.0041 42.1773 31.8605 41.4436 31.8605C40.71 31.8605 40.1106 31.0041 40.1106 29.9474C40.1106 28.8906 40.71 28.0332 41.4436 28.0332C42.1773 28.0332 42.7767 28.8901 42.7767 29.9474ZM36.4145 32.4577C36.4145 32.7332 36.1906 32.9565 35.9144 32.9565C35.6382 32.9565 35.4143 32.7332 35.4143 32.4577C35.4143 32.1823 35.638 31.959 35.9144 31.959C36.1908 31.959 36.4145 32.1823 36.4145 32.4577ZM34.7494 33.7189C34.7424 33.699 34.7393 33.678 34.7405 33.657C34.7416 33.6359 34.7468 33.6153 34.7559 33.5963C34.7651 33.5773 34.7778 33.5603 34.7935 33.5462C34.8092 33.5321 34.8276 33.5213 34.8475 33.5142C34.8674 33.5072 34.8885 33.5042 34.9096 33.5053C34.9307 33.5064 34.9513 33.5117 34.9704 33.5208C34.9895 33.5298 35.0065 33.5426 35.0207 33.5582C35.0348 33.5739 35.0457 33.5922 35.0527 33.612C35.1812 33.9742 35.5258 34.2176 35.9103 34.2176C36.2949 34.2176 36.6392 33.9742 36.7682 33.612C36.7752 33.5922 36.7861 33.5739 36.8002 33.5583C36.8143 33.5426 36.8314 33.5299 36.8504 33.5208C36.8695 33.5118 36.8901 33.5065 36.9112 33.5054C36.9323 33.5043 36.9534 33.5073 36.9733 33.5144C36.9932 33.5214 37.0115 33.5322 37.0272 33.5463C37.0429 33.5604 37.0556 33.5774 37.0647 33.5964C37.0738 33.6154 37.0791 33.636 37.0802 33.657C37.0813 33.678 37.0783 33.6991 37.0712 33.7189C36.9848 33.9568 36.827 34.1623 36.6193 34.3076C36.4116 34.4528 36.164 34.5308 35.9103 34.5308C35.6566 34.5308 35.4091 34.4528 35.2014 34.3076C34.9936 34.1623 34.8358 33.9568 34.7494 33.7189Z" fill="#B1645A"/>
<path d="M23.662 36.0016C23.662 36.1347 23.5057 36.2421 23.3132 36.2421C23.1207 36.2421 22.9646 36.1345 22.9646 36.0016C22.9646 35.8686 23.1204 35.7606 23.3132 35.7606C23.506 35.7606 23.662 35.8682 23.662 36.0016ZM24.6278 36.5359C24.6278 36.6691 24.4715 36.7769 24.2789 36.7769C24.0864 36.7769 23.9303 36.6693 23.9303 36.5359C23.9303 36.4025 24.0862 36.2954 24.2789 36.2954C24.4717 36.2954 24.6278 36.403 24.6278 36.5359ZM25.2181 37.2293C25.2181 37.362 25.0622 37.4698 24.8692 37.4698C24.6762 37.4698 24.5209 37.3622 24.5209 37.2293C24.5209 37.0963 24.6767 36.9883 24.8692 36.9883C25.0617 36.9883 25.2181 37.0959 25.2181 37.2293ZM25.7539 38.0319C25.7539 38.165 25.5981 38.2729 25.4056 38.2729C25.213 38.2729 25.0567 38.1653 25.0567 38.0319C25.0567 37.8985 25.2126 37.7909 25.4056 37.7909C25.5986 37.7909 25.7539 37.8985 25.7539 38.0319ZM26.3442 38.7833C26.3442 38.916 26.1884 39.0238 25.9956 39.0238C25.8028 39.0238 25.6467 38.9162 25.6467 38.7833C25.6467 38.6504 25.8031 38.5423 25.9956 38.5423C26.1881 38.5423 26.3442 38.6499 26.3442 38.7833ZM27.1491 39.4248C27.1491 39.5579 26.9932 39.6658 26.8002 39.6658C26.6072 39.6658 26.4518 39.5582 26.4518 39.4248C26.4518 39.2914 26.6077 39.1843 26.8002 39.1843C26.9927 39.1843 27.1491 39.2918 27.1491 39.4248Z" fill="#C5E6DA"/>
<path d="M28.2753 39.853C28.2753 39.9857 28.1195 40.0935 27.9267 40.0935C27.734 40.0935 27.5779 39.9859 27.5779 39.853C27.5779 39.7201 27.7337 39.612 27.9267 39.612C28.1197 39.612 28.2753 39.7196 28.2753 39.853Z" fill="#C5E6DA"/>
<path d="M29.3964 39.853C29.3964 39.9857 29.2406 40.0935 29.0478 40.0935C28.8551 40.0935 28.699 39.9859 28.699 39.853C28.699 39.7201 28.8548 39.612 29.0478 39.612C29.2408 39.612 29.3964 39.7196 29.3964 39.853Z" fill="#C5E6DA"/>
<path d="M30.5344 39.6667C30.5344 39.7999 30.3785 39.9077 30.1858 39.9077C29.993 39.9077 29.8369 39.8001 29.8369 39.6667C29.8369 39.5333 29.9928 39.4257 30.1858 39.4257C30.3788 39.4257 30.5344 39.5333 30.5344 39.6667Z" fill="#C5E6DA"/>
</g>
<defs>
<clipPath id="clip0_388_85">
<rect width="43" height="43" fill="white" transform="translate(14.5 13)"/>
</clipPath>
</defs>
</svg>
