<svg width="71" height="70" viewBox="0 0 71 70" fill="none" xmlns="http://www.w3.org/2000/svg">
<rect x="0.5" width="70" height="70" rx="35" fill="#E7E7E7"/>
<g clip-path="url(#clip0_388_2)">
<path d="M20.4467 52.4026L17.0227 14.0012H54.644L51.2174 52.3972L35.8094 56.6666L20.4467 52.4026Z" fill="#E44D26"/>
<path d="M48.2826 49.952L51.2119 17.1414H35.8333V53.404L48.2826 49.952Z" fill="#F16529"/>
<path d="M35.8174 21.8506H24.0227L25.2934 36.0933H35.8334V31.3839H29.6014L29.1707 26.5613H35.8334V21.8506H35.8174ZM35.8334 43.5999L35.8134 43.6053L30.568 42.1893L30.2347 38.4333H25.504L26.164 45.8279L35.812 48.4946L35.8334 48.4879V43.5999Z" fill="#EBEBEB"/>
<path d="M35.8174 36.0933H41.6174L41.084 42.1999L35.8307 43.6173V48.5173L45.4867 45.8413L46.78 31.3813H35.8334L35.8174 36.0933ZM47.5027 23.1146L47.6147 21.8506H35.8147V26.5599H47.1907L47.284 25.5013L47.5027 23.1146Z" fill="white"/>
</g>
<defs>
<clipPath id="clip0_388_2">
<rect width="42.6667" height="42.6667" fill="white" transform="translate(14.5 14)"/>
</clipPath>
</defs>
</svg>
