<svg width="71" height="70" viewBox="0 0 71 70" fill="none" xmlns="http://www.w3.org/2000/svg">
<rect x="0.5" width="70" height="70" rx="35" fill="#E7E7E7"/>
<g clip-path="url(#clip0_388_23)">
<path d="M16.5381 13.1269C20.7664 12.9491 25.0033 13.1777 29.2359 13.1057C33.9053 12.9576 38.5705 13.0803 43.2441 13.0972C46.9508 13.1057 50.6575 13.0803 54.3642 13.1099C53.1979 25.9465 52.0231 38.783 50.9417 51.628C45.9754 53.0373 41.0048 54.4255 36.0385 55.8264C35.4024 56.0888 34.7492 55.8433 34.1385 55.6782C29.4182 54.3239 24.6979 52.9823 19.9691 51.6787C18.7392 38.838 17.5814 25.9845 16.5381 13.1269ZM35.5296 16.4746C35.3557 22.8061 35.5042 29.1376 35.4533 35.4691C35.4999 41.2589 35.3684 47.0529 35.5211 52.8426C39.6943 51.8607 43.8124 50.6545 47.9305 49.4653C48.9653 38.474 49.9747 27.4828 50.8399 16.4788C45.7379 16.4281 40.6316 16.4873 35.5296 16.4746ZM30.2198 41.1996C27.7684 40.5309 25.3468 39.7606 22.8615 39.2316C22.7894 40.7044 22.8149 42.1773 22.9845 43.6416C26.6234 44.5262 30.1858 45.6901 33.8289 46.5577C33.8544 38.1735 33.8162 29.7851 33.8459 21.401C32.6584 21.3714 31.4709 21.3544 30.2834 21.329C30.1477 27.9483 30.2749 34.5761 30.2198 41.1996Z" fill="#D6BA32"/>
<path d="M35.5297 16.4747C40.6317 16.4874 45.738 16.4281 50.84 16.4789C49.9748 27.4829 48.9654 38.4741 47.9306 49.4654C43.8125 50.6546 39.6945 51.8608 35.5212 52.8427C35.3686 47.0529 35.5 41.259 35.4534 35.4692C35.5043 29.1377 35.3558 22.8062 35.5297 16.4747ZM36.959 21.3969C36.9759 26.848 36.9802 32.3034 36.959 37.7546C39.4527 37.3526 41.938 36.8912 44.4232 36.4384C44.3851 37.7081 44.3342 38.9778 44.279 40.2474C41.8574 40.8907 39.44 41.5552 37.0056 42.152C36.9674 43.6163 36.9632 45.0807 36.9759 46.5493C40.0422 45.8637 43.0619 45.0003 46.1069 44.2342C46.4886 44.0565 47.2223 44.0777 47.1884 43.4809C47.5574 39.5618 47.7864 35.6258 48.1427 31.6982C45.6192 31.9056 43.1212 32.3288 40.5978 32.5024C40.5766 30.2762 40.5724 28.05 40.6063 25.8238C43.2612 25.8238 45.9119 25.8238 48.5668 25.8281C48.7364 24.3425 48.8849 22.8528 48.9994 21.363C44.9873 21.3799 40.971 21.3249 36.959 21.3969Z" fill="#FFDA3E"/>
<path d="M30.2199 41.1997C30.275 34.5761 30.1478 27.9484 30.2835 21.3291C31.471 21.3545 32.6585 21.3714 33.846 21.4011C33.8163 29.7852 33.8545 38.1736 33.829 46.5577C30.1859 45.6901 26.6235 44.5263 22.9846 43.6417C22.815 42.1773 22.7895 40.7045 22.8616 39.2317C25.3469 39.7607 27.7685 40.531 30.2199 41.1997Z" fill="#EBEBEB"/>
</g>
<defs>
<clipPath id="clip0_388_23">
<rect width="38" height="43" fill="white" transform="translate(16.5 13)"/>
</clipPath>
</defs>
</svg>
