<svg width="34" height="36" viewBox="0 0 34 36" fill="none" xmlns="http://www.w3.org/2000/svg">
<path d="M6.36279 30C5.60654 30 4.95938 29.7065 4.42129 29.1195C3.88229 28.5315 3.61279 27.825 3.61279 27V9C3.61279 8.175 3.88229 7.469 4.42129 6.882C4.95938 6.294 5.60654 6 6.36279 6H28.3628C29.119 6 29.7667 6.294 30.3057 6.882C30.8437 7.469 31.1128 8.175 31.1128 9V27C31.1128 27.825 30.8437 28.5315 30.3057 29.1195C29.7667 29.7065 29.119 30 28.3628 30H6.36279ZM17.3628 19.5L28.3628 12V9L17.3628 16.5L6.36279 9V12L17.3628 19.5Z" fill="white"/>
</svg>
