<svg width="34" height="36" viewBox="0 0 34 36" fill="none" xmlns="http://www.w3.org/2000/svg">
<path d="M17.3628 18C18.119 18 18.7667 17.706 19.3057 17.118C19.8438 16.531 20.1128 15.825 20.1128 15C20.1128 14.175 19.8438 13.4685 19.3057 12.8805C18.7667 12.2935 18.119 12 17.3628 12C16.6065 12 15.9594 12.2935 15.4213 12.8805C14.8823 13.4685 14.6128 14.175 14.6128 15C14.6128 15.825 14.8823 16.531 15.4213 17.118C15.9594 17.706 16.6065 18 17.3628 18ZM17.3628 33C13.6732 29.575 10.9177 26.3935 9.09629 23.4555C7.27396 20.5185 6.36279 17.8 6.36279 15.3C6.36279 11.55 7.46875 8.5625 9.68067 6.3375C11.8917 4.1125 14.4524 3 17.3628 3C20.2732 3 22.8339 4.1125 25.0449 6.3375C27.2568 8.5625 28.3628 11.55 28.3628 15.3C28.3628 17.8 27.4521 20.5185 25.6307 23.4555C23.8083 26.3935 21.0524 29.575 17.3628 33Z" fill="white"/>
</svg>
