<svg width="70" height="70" viewBox="0 0 70 70" fill="none" xmlns="http://www.w3.org/2000/svg">
<rect width="70" height="70" rx="35" fill="#E7E7E7"/>
<g clip-path="url(#clip0_388_137)">
<path d="M21.1146 14H48.8854C53.0958 14 56.5 17.4103 56.5 21.6282V48.3718C56.5 52.5897 53.0958 56 48.8854 56H21.1146C16.9042 56 13.5 52.5897 13.5 48.3718V21.6282C13.5 17.4103 16.9042 14 21.1146 14Z" fill="#001E36"/>
<path d="M23.175 43.4538V24.9846C23.175 24.8589 23.2288 24.7871 23.3542 24.7871C23.6588 24.7871 23.9455 24.7871 24.3575 24.7692C24.7875 24.7512 25.2355 24.7512 25.7192 24.7333C26.203 24.7153 26.7225 24.7153 27.278 24.6974C27.8334 24.6794 28.3709 24.6794 28.9084 24.6794C30.3775 24.6794 31.5959 24.8589 32.5992 25.2359C33.495 25.541 34.3192 26.0435 35 26.7076C35.5734 27.282 36.0213 27.982 36.308 28.7538C36.5767 29.5076 36.72 30.2794 36.72 31.0871C36.72 32.6307 36.3617 33.9051 35.645 34.9102C34.9284 35.9153 33.925 36.6692 32.7605 37.1C31.5421 37.5487 30.1984 37.7102 28.7292 37.7102C28.2992 37.7102 28.0125 37.7102 27.8334 37.6923C27.6542 37.6743 27.4034 37.6743 27.063 37.6743V43.4359C27.0809 43.5615 26.9913 43.6692 26.8659 43.6871C26.848 43.6871 26.83 43.6871 26.7942 43.6871H23.39C23.2467 43.6871 23.175 43.6153 23.175 43.4538ZM27.0809 28.2512V34.282C27.3317 34.3 27.5646 34.3179 27.7796 34.3179H28.7292C29.428 34.3179 30.1267 34.2102 30.7896 33.9948C31.363 33.8333 31.8646 33.4923 32.2588 33.0435C32.635 32.5948 32.8142 31.9846 32.8142 31.1948C32.8321 30.6384 32.6888 30.082 32.4021 29.5974C32.0975 29.1307 31.6675 28.7718 31.148 28.5743C30.485 28.3051 29.7684 28.1974 29.0338 28.2153C28.568 28.2153 28.1559 28.2153 27.8155 28.2333C27.4571 28.2153 27.2063 28.2333 27.0809 28.2512Z" fill="#31A8FF"/>
<path d="M47.9 33.187C47.3625 32.8998 46.7891 32.7024 46.18 32.5768C45.517 32.4332 44.8541 32.3434 44.1733 32.3434C43.815 32.3255 43.4387 32.3793 43.0983 32.4691C42.8654 32.5229 42.6683 32.6486 42.5429 32.8281C42.4533 32.9716 42.3995 33.1511 42.3995 33.3127C42.3995 33.4742 42.4712 33.6357 42.5787 33.7793C42.74 33.9768 42.955 34.1383 43.1879 34.2639C43.6 34.4793 44.03 34.6768 44.46 34.8563C45.4275 35.1793 46.3591 35.6281 47.2191 36.1665C47.8104 36.5434 48.2941 37.046 48.6345 37.6563C48.9212 38.2306 49.0645 38.8588 49.0466 39.505C49.0645 40.3486 48.8137 41.1922 48.3479 41.8922C47.8462 42.6101 47.1475 43.1665 46.3412 43.4896C45.4633 43.8665 44.3883 44.0639 43.0983 44.0639C42.2741 44.0639 41.4679 43.9922 40.6616 43.8306C40.0345 43.7229 39.4075 43.5255 38.8341 43.2563C38.7087 43.1845 38.6191 43.0588 38.637 42.9152V39.7922C38.637 39.7383 38.655 39.6665 38.7087 39.6306C38.7625 39.5947 38.8162 39.6127 38.87 39.6486C39.5687 40.0614 40.3033 40.3486 41.0916 40.5281C41.7725 40.7075 42.4891 40.7973 43.2058 40.7973C43.8866 40.7973 44.3704 40.7075 44.6929 40.546C44.9795 40.4204 45.1766 40.1152 45.1766 39.7922C45.1766 39.5409 45.0333 39.3075 44.7466 39.0742C44.46 38.8409 43.8687 38.5716 42.9908 38.2306C42.077 37.9075 41.235 37.4768 40.4466 36.9383C39.8912 36.5434 39.4254 36.0229 39.085 35.4127C38.7983 34.8383 38.655 34.2101 38.6729 33.5819C38.6729 32.8101 38.8879 32.0742 39.282 31.4101C39.73 30.6922 40.3929 30.1178 41.1633 29.7588C42.0054 29.3281 43.0625 29.1306 44.3345 29.1306C45.0691 29.1306 45.8216 29.1845 46.5562 29.2922C47.0937 29.3639 47.6133 29.5075 48.097 29.705C48.1687 29.7229 48.2404 29.7947 48.2762 29.8665C48.2941 29.9383 48.312 30.0101 48.312 30.0819V33.0075C48.312 33.0793 48.2762 33.1511 48.2225 33.187C48.0612 33.2229 47.9716 33.2229 47.9 33.187Z" fill="#31A8FF"/>
</g>
<defs>
<clipPath id="clip0_388_137">
<rect width="43" height="42" fill="white" transform="translate(13.5 14)"/>
</clipPath>
</defs>
</svg>
