<svg width="70" height="70" viewBox="0 0 70 70" fill="none" xmlns="http://www.w3.org/2000/svg">
<rect width="70" height="70" rx="35" fill="#E7E7E7"/>
<g clip-path="url(#clip0_388_64)">
<path d="M35.5002 38.3041C37.6208 38.3041 39.34 36.5849 39.34 34.4643C39.34 32.3436 37.6208 30.6245 35.5002 30.6245C33.3795 30.6245 31.6604 32.3436 31.6604 34.4643C31.6604 36.5849 33.3795 38.3041 35.5002 38.3041Z" fill="#00D8FF"/>
<path fill-rule="evenodd" clip-rule="evenodd" d="M35.5003 26.6572C40.6558 26.6572 45.445 27.397 49.0561 28.6401C53.407 30.138 56.082 32.4084 56.082 34.4643C56.082 36.6067 53.247 39.0187 48.5747 40.5667C45.0424 41.737 40.3942 42.3479 35.5003 42.3479C30.4828 42.3479 25.7315 41.7745 22.1594 40.5538C17.64 39.0091 14.918 36.5659 14.918 34.4643C14.918 32.4251 17.4721 30.1722 21.7618 28.6767C25.3863 27.413 30.2939 26.6572 35.4997 26.6572H35.5003Z" stroke="#00D8FF" stroke-width="2.73408"/>
<path fill-rule="evenodd" clip-rule="evenodd" d="M28.7041 30.5834C31.2797 26.1174 34.3129 22.3382 37.1939 19.831C40.665 16.8103 43.9682 15.6273 45.7491 16.6542C47.605 17.7245 48.2781 21.3855 47.285 26.2061C46.5349 29.8508 44.7413 34.1825 42.2964 38.4219C39.7898 42.7684 36.9195 46.5979 34.0778 49.0818C30.482 52.2251 27.0055 53.3626 25.185 52.3127C23.4185 51.2948 22.7429 47.9561 23.5904 43.4928C24.3064 39.7217 26.1033 35.0929 28.7032 30.5833L28.7041 30.5834Z" stroke="#00D8FF" stroke-width="2.73408"/>
<path fill-rule="evenodd" clip-rule="evenodd" d="M28.7105 38.4334C26.1277 33.9725 24.3692 29.4562 23.6351 25.7082C22.7516 21.1924 23.3763 17.7396 25.1555 16.7097C27.0096 15.6363 30.5175 16.8815 34.198 20.1494C36.9807 22.6201 39.838 26.3367 42.29 30.5721C44.8039 34.9144 46.688 39.3137 47.4209 43.0161C48.3484 47.7014 47.5977 51.2812 45.7789 52.3341C44.0141 53.3558 40.7847 52.2741 37.3412 49.3108C34.4316 46.8072 31.3188 42.9386 28.7105 38.4333V38.4334Z" stroke="#00D8FF" stroke-width="2.73408"/>
</g>
<defs>
<clipPath id="clip0_388_64">
<rect width="43" height="43" fill="white" transform="translate(14 13)"/>
</clipPath>
</defs>
</svg>
