<svg width="70" height="70" viewBox="0 0 70 70" fill="none" xmlns="http://www.w3.org/2000/svg">
<rect width="70" height="70" rx="35" fill="#E7E7E7"/>
<g clip-path="url(#clip0_388_53)">
<path d="M55.0164 41.8919C53.5127 41.9006 52.2113 42.2614 51.1195 42.7989C50.7164 42.0007 50.3132 41.304 50.246 40.7833C50.1701 40.1786 50.0781 39.809 50.1701 39.0868C50.2622 38.3645 50.6828 37.3399 50.6828 37.2559C50.6747 37.18 50.59 36.8105 49.7253 36.8024C48.8606 36.7943 48.1128 36.9704 48.0289 37.1975C47.8788 37.617 47.758 38.0465 47.6674 38.4828C47.5162 39.2722 45.9373 42.0692 45.0383 43.5393C44.7441 42.9682 44.4921 42.4643 44.4417 42.0612C44.3658 41.4565 44.2737 41.0869 44.3658 40.3647C44.4578 39.6424 44.8784 38.6178 44.8784 38.5338C44.8704 38.4579 44.7857 38.0884 43.921 38.0803C43.0563 38.0722 42.3085 38.2483 42.2245 38.4754C42.1405 38.7025 42.0478 39.24 41.8631 39.7607C41.6864 40.2814 39.5867 44.9516 39.0412 46.169C38.7637 46.7905 38.5205 47.2863 38.3438 47.6223C38.1671 47.9582 38.3357 47.6478 38.3189 47.6814L38.0838 48.1269V48.1349C37.9662 48.3452 37.8399 48.5468 37.7814 48.5468C37.7398 48.5468 37.6551 47.9837 37.7982 47.2111C38.1093 45.5899 38.8652 43.0616 38.8564 42.9695C38.8564 42.9279 38.9995 42.4824 38.3693 42.2553C37.7559 42.0282 37.5375 42.4065 37.4871 42.4065C37.4367 42.4065 37.3944 42.5409 37.3944 42.5409C37.3944 42.5409 38.075 39.6935 36.0923 39.6935C34.8494 39.6935 33.1361 41.046 32.2875 42.2802L28.0036 44.6237L27.9109 44.5229C25.5103 41.959 21.0672 40.145 21.2519 36.7016C21.3191 35.4499 21.7559 32.149 29.7848 28.1513C36.3611 24.8759 41.6279 25.7742 42.5437 27.7731C43.8458 30.6285 39.7299 35.9364 32.8929 36.7023C30.2893 36.9966 28.9201 35.9881 28.5754 35.6105C28.2139 35.2154 28.1635 35.1986 28.0291 35.2746C27.8108 35.3921 27.9452 35.7449 28.0291 35.9552C28.2307 36.4846 29.0706 37.4252 30.4983 37.8955C31.75 38.3074 34.807 38.5338 38.503 37.1061C42.6438 35.5017 45.8775 31.0505 44.9281 27.3303C43.962 23.5423 37.68 22.2993 31.7413 24.4077C28.2059 25.6661 24.3829 27.6306 21.6282 30.2093C18.3461 33.2663 17.8254 35.9377 18.0431 37.0463C18.8077 41.0023 24.2579 43.5809 26.4415 45.4877L26.1392 45.6557C25.0474 46.1932 20.8898 48.3687 19.8484 50.6699C18.6726 53.2734 20.0332 55.1466 20.9402 55.3986C23.7453 56.1799 26.6175 54.7771 28.1716 52.4672C29.7169 50.1573 29.5321 47.1594 28.8186 45.7901L28.7931 45.7397L29.6497 45.2358C30.204 44.9079 30.7502 44.6056 31.2286 44.3455C30.9599 45.0765 30.7664 45.9412 30.6656 47.201C30.548 48.6791 31.1527 50.594 31.9509 51.3505C32.3036 51.6784 32.7235 51.6864 32.9842 51.6864C33.9081 51.6864 34.328 50.9219 34.7902 50.0068C35.3613 48.8894 35.8652 47.5961 35.8652 47.5961C35.8652 47.5961 35.235 51.0986 36.957 51.0986C37.5872 51.0986 38.2168 50.2836 38.5023 49.8636V49.8717C38.5023 49.8717 38.5191 49.8462 38.5527 49.7877C38.6199 49.6869 38.6535 49.6278 38.6535 49.6278V49.611C38.9055 49.1743 39.4685 48.1746 40.3083 46.5204C41.3921 44.3872 42.4335 41.7165 42.4335 41.7165C42.4335 41.7165 42.5343 42.3716 42.8453 43.4466C43.0301 44.0849 43.4332 44.7823 43.7443 45.4622L43.3412 46.0165L43.3492 46.0252C43.1343 46.3101 42.9129 46.5901 42.6854 46.8651C41.8288 47.8897 40.8042 49.0574 40.6698 49.3933C40.5099 49.7884 40.5435 50.082 40.8546 50.3172C41.0817 50.4851 41.4848 50.5187 41.9128 50.4851C42.6854 50.4347 43.2229 50.2412 43.4917 50.1237C43.9765 49.9508 44.4346 49.7104 44.8522 49.4095C45.6921 48.788 46.2047 47.9058 46.1543 46.73C46.1288 46.083 45.9192 45.4447 45.6585 44.84L45.8856 44.5041C47.2125 42.5637 48.2371 40.4305 48.2371 40.4305C48.2371 40.4305 48.3379 41.0856 48.649 42.1606C48.8089 42.7068 49.128 43.3028 49.4136 43.8907C48.1706 44.9072 47.3892 46.083 47.1205 46.8557C46.6246 48.2834 47.011 48.9304 47.742 49.0816C48.0698 49.1488 48.5401 48.9976 48.8929 48.8464C49.3296 48.7033 49.859 48.4601 50.3461 48.0986C51.186 47.4772 51.9922 46.6118 51.9506 45.4447C51.9251 44.9072 51.7826 44.3778 51.5891 43.8739C52.6473 43.4372 54.0166 43.1852 55.7547 43.3948C59.4924 43.8316 60.2314 46.1663 60.0883 47.1405C59.9452 48.1148 59.1645 48.6523 58.9038 48.8202C58.6431 48.9801 58.5592 49.0386 58.5847 49.1562C58.6183 49.3329 58.7359 49.3241 58.9629 49.2905C59.274 49.2402 60.9282 48.4924 60.9954 46.6951C61.0961 44.3852 58.9038 41.8657 55.0157 41.8912L55.0164 41.8919ZM26.1902 51.6105C24.9553 52.963 23.2172 53.475 22.4781 53.0383C21.6799 52.576 21.991 50.5859 23.5115 49.1494C24.4353 48.276 25.6366 47.4698 26.4261 46.9739L27.1906 46.5117C27.241 46.4781 27.2746 46.4613 27.2746 46.4613C27.3338 46.4277 27.4009 46.3854 27.4681 46.3437C28.0312 48.3929 27.4937 50.1902 26.1916 51.6099L26.1902 51.6105ZM35.2202 45.4709C34.7916 46.5211 33.8845 49.2166 33.339 49.0655C32.8687 48.9391 32.5831 46.8987 33.2463 44.8824C33.5822 43.8658 34.2964 42.6564 34.7163 42.1861C35.3969 41.4303 36.136 41.1783 36.3208 41.4887C36.5391 41.8919 35.489 44.8145 35.2202 45.4703V45.4709ZM42.67 49.0319C42.4852 49.1246 42.3172 49.1918 42.2413 49.1414C42.1822 49.1078 42.3172 48.9815 42.3172 48.9815C42.3172 48.9815 43.2498 47.9817 43.6193 47.5202L44.3503 46.5876V46.6884C44.3503 47.8977 43.1914 48.704 42.6707 49.0319H42.67ZM48.4145 47.7217C48.2801 47.6209 48.2969 47.3099 48.7504 46.3356C48.9272 45.9493 49.3303 45.3023 50.027 44.6895C50.111 44.9415 50.1614 45.1854 50.1533 45.4118C50.1446 46.9235 49.0696 47.4866 48.4145 47.7217Z" fill="#CF649A"/>
</g>
<defs>
<clipPath id="clip0_388_53">
<rect width="43" height="43" fill="white" transform="translate(18 18)"/>
</clipPath>
</defs>
</svg>
