<svg width="37" height="36" viewBox="0 0 37 36" fill="none" xmlns="http://www.w3.org/2000/svg">
<path d="M18.8628 3C10.5828 3 3.86279 9.72 3.86279 18C3.86279 26.28 10.5828 33 18.8628 33C27.1428 33 33.8628 26.28 33.8628 18C33.8628 9.72 27.1428 3 18.8628 3ZM25.8228 13.2C25.5978 15.57 24.6228 21.33 24.1278 23.985C23.9178 25.11 23.4978 25.485 23.1078 25.53C22.2378 25.605 21.5778 24.96 20.7378 24.405C19.4178 23.535 18.6678 22.995 17.3928 22.155C15.9078 21.18 16.8678 20.64 17.7228 19.77C17.9478 19.545 21.7878 16.05 21.8628 15.735C21.8732 15.6873 21.8718 15.6378 21.8588 15.5907C21.8457 15.5437 21.8213 15.5005 21.7878 15.465C21.6978 15.39 21.5778 15.42 21.4728 15.435C21.3378 15.465 19.2378 16.86 15.1428 19.62C14.5428 20.025 14.0028 20.235 13.5228 20.22C12.9828 20.205 11.9628 19.92 11.1978 19.665C10.2528 19.365 9.51779 19.2 9.57779 18.675C9.60779 18.405 9.98279 18.135 10.6878 17.85C15.0678 15.945 17.9778 14.685 19.4328 14.085C23.6028 12.345 24.4578 12.045 25.0278 12.045C25.1478 12.045 25.4328 12.075 25.6128 12.225C25.7628 12.345 25.8078 12.51 25.8228 12.63C25.8078 12.72 25.8378 12.99 25.8228 13.2V13.2Z" fill="white"/>
</svg>
